HIERARCHY
ROOT Hips
{
	OFFSET 0.000000 71.427986 0.000000
	CHANNELS 6 Xposition Yposition Zposition Xrotation Yrotation Zrotation
	JOINT Pelvis
	{
		OFFSET 0.000000 0.000000 0.000000
		CHANNELS 3 Xrotation Yrotation Zrotation
		JOINT LeftUpLeg
		{
			OFFSET 6.797100 -2.508499 -1.318700
			CHANNELS 3 Xrotation Yrotation Zrotation
			JOINT LeftLeg
			{
				OFFSET 0.069008 -29.241863 0.690200
				CHANNELS 3 Xrotation Yrotation Zrotation
				JOINT LeftFoot
				{
					OFFSET -0.069008 -29.568123 -0.266800
					CHANNELS 3 Xrotation Yrotation Zrotation
					JOINT LeftToeBase
					{
						OFFSET 3.145500 -8.631000 16.059900
						CHANNELS 3 Xrotation Yrotation Zrotation
						End Site
						{
							OFFSET 0.000000 18.501587 0.000000
						}
					}
				}
			}
			JOINT Left_ShortSleeve
			{
				OFFSET 0.265923 -10.480953 1.153800
				CHANNELS 3 Xrotation Yrotation Zrotation
				End Site
				{
					OFFSET 1.725763 19.823879 0.000000
				}
			}
		}
		JOINT RightUpLeg
		{
			OFFSET -6.797100 -2.508499 -1.318700
			CHANNELS 3 Xrotation Yrotation Zrotation
			JOINT RightLeg
			{
				OFFSET -0.082453 -29.241932 0.688000
				CHANNELS 3 Xrotation Yrotation Zrotation
				JOINT RightFoot
				{
					OFFSET 0.082453 -29.568058 -0.264600
					CHANNELS 3 Xrotation Yrotation Zrotation
					JOINT RightToeBase
					{
						OFFSET -3.115300 -8.682800 16.113400
						CHANNELS 3 Xrotation Yrotation Zrotation
						End Site
						{
							OFFSET 0.000000 18.567114 0.000000
						}
					}
				}
			}
			JOINT Right_ShortSleeve
			{
				OFFSET -0.265923 -10.480953 1.153800
				CHANNELS 3 Xrotation Yrotation Zrotation
				End Site
				{
					OFFSET -1.725766 19.823910 0.000000
				}
			}
		}
	}
	JOINT Spine
	{
		OFFSET 0.000000 13.368103 0.470500
		CHANNELS 3 Xrotation Yrotation Zrotation
		JOINT Spine1
		{
			OFFSET 0.147000 13.837402 0.538800
			CHANNELS 3 Xrotation Yrotation Zrotation
			JOINT Spine2
			{
				OFFSET 0.168000 16.242897 -1.435500
				CHANNELS 3 Xrotation Yrotation Zrotation
				JOINT Neck
				{
					OFFSET 0.217200 18.631500 -1.679100
					CHANNELS 3 Xrotation Yrotation Zrotation
					JOINT Head
					{
						OFFSET 0.000000 6.599396 1.385900
						CHANNELS 3 Xrotation Yrotation Zrotation
						JOINT Hat
						{
							OFFSET -0.532200 27.220596 -10.096100
							CHANNELS 3 Xrotation Yrotation Zrotation
							End Site
							{
								OFFSET 0.000000 22.029861 0.000000
							}
						}
						JOINT HairD
						{
							OFFSET -10.777400 17.437393 -1.325900
							CHANNELS 3 Xrotation Yrotation Zrotation
							JOINT HairD1
							{
								OFFSET -3.290299 -11.051193 1.062200
								CHANNELS 3 Xrotation Yrotation Zrotation
								End Site
								{
									OFFSET 0.000000 11.579437 0.000000
								}
							}
						}
						JOINT HairB
						{
							OFFSET -10.777400 17.437393 1.467900
							CHANNELS 3 Xrotation Yrotation Zrotation
							JOINT HairB1
							{
								OFFSET -1.561200 -12.956299 3.590200
								CHANNELS 3 Xrotation Yrotation Zrotation
								End Site
								{
									OFFSET 0.000000 13.534866 0.000000
								}
							}
						}
						JOINT HairA
						{
							OFFSET 9.713100 17.437393 1.467900
							CHANNELS 3 Xrotation Yrotation Zrotation
							JOINT HairA1
							{
								OFFSET 1.561200 -12.956299 3.590200
								CHANNELS 3 Xrotation Yrotation Zrotation
								End Site
								{
									OFFSET 0.000000 13.534866 0.000000
								}
							}
						}
						JOINT HairC
						{
							OFFSET 9.713100 17.437393 -1.325900
							CHANNELS 3 Xrotation Yrotation Zrotation
							JOINT HairC1
							{
								OFFSET 3.290300 -11.051193 1.062200
								CHANNELS 3 Xrotation Yrotation Zrotation
								End Site
								{
									OFFSET 0.000000 11.579437 0.000000
								}
							}
						}
					}
				}
				JOINT LeftShoulder
				{
					OFFSET 5.101800 15.108002 -2.763700
					CHANNELS 3 Xrotation Yrotation Zrotation
					JOINT LeftArm
					{
						OFFSET 9.825497 2.506317 -1.597400
						CHANNELS 3 Xrotation Yrotation Zrotation
						JOINT LeftForeArm
						{
							OFFSET 21.966244 0.000000 0.000000
							CHANNELS 3 Xrotation Yrotation Zrotation
							JOINT LeftHand
							{
								OFFSET 33.879036 0.000000 0.000000
								CHANNELS 3 Xrotation Yrotation Zrotation
								JOINT LeftHandThumb1
								{
									OFFSET 6.715286 -2.359680 3.363841
									CHANNELS 3 Xrotation Yrotation Zrotation
									JOINT LeftHandThumb2
									{
										OFFSET 2.507072 -1.447464 1.447461
										CHANNELS 3 Xrotation Yrotation Zrotation
										JOINT LeftHandThumb3
										{
											OFFSET 2.898338 -1.673355 1.673357
											CHANNELS 3 Xrotation Yrotation Zrotation
											End Site
											{
												OFFSET -0.295959 3.727692 -0.131651
											}
										}
									}
								}
								JOINT LeftHandIndex1
								{
									OFFSET 14.190811 -0.254547 3.840278
									CHANNELS 3 Xrotation Yrotation Zrotation
									JOINT LeftHandIndex2
									{
										OFFSET 3.551727 0.000000 -0.000000
										CHANNELS 3 Xrotation Yrotation Zrotation
										JOINT LeftHandIndex3
										{
											OFFSET 2.894196 0.000000 0.000000
											CHANNELS 3 Xrotation Yrotation Zrotation
											End Site
											{
												OFFSET -1.000603 2.690872 0.366626
											}
										}
									}
								}
								JOINT LeftHandMiddle1
								{
									OFFSET 13.776489 0.000000 0.000000
									CHANNELS 3 Xrotation Yrotation Zrotation
									JOINT LeftHandMiddle2
									{
										OFFSET 3.438232 0.000000 0.000000
										CHANNELS 3 Xrotation Yrotation Zrotation
										JOINT LeftHandMiddle3
										{
											OFFSET 3.691551 0.000000 0.000000
											CHANNELS 3 Xrotation Yrotation Zrotation
											End Site
											{
												OFFSET -1.082298 3.499527 0.457670
											}
										}
									}
								}
								JOINT LeftHandRing1
								{
									OFFSET 13.966164 -0.268127 -3.067488
									CHANNELS 3 Xrotation Yrotation Zrotation
									JOINT LeftHandRing2
									{
										OFFSET 3.162567 0.000000 0.000000
										CHANNELS 3 Xrotation Yrotation Zrotation
										JOINT LeftHandRing3
										{
											OFFSET 3.324348 0.000000 0.000000
											CHANNELS 3 Xrotation Yrotation Zrotation
											End Site
											{
												OFFSET -0.861900 3.184998 0.405154
											}
										}
									}
								}
								JOINT LeftHandPinky1
								{
									OFFSET 13.131393 -0.168503 -5.746925
									CHANNELS 3 Xrotation Yrotation Zrotation
									JOINT LeftHandPinky2
									{
										OFFSET 2.849182 0.000000 0.000000
										CHANNELS 3 Xrotation Yrotation Zrotation
										JOINT LeftHandPinky3
										{
											OFFSET 2.805038 0.000000 0.000000
											CHANNELS 3 Xrotation Yrotation Zrotation
											End Site
											{
												OFFSET -0.882500 2.642609 0.325652
											}
										}
									}
								}
							}
							JOINT Left_Sleeve
							{
								OFFSET 6.592125 -0.646545 0.805568
								CHANNELS 3 Xrotation Yrotation Zrotation
								End Site
								{
									OFFSET -0.000179 20.275787 -0.000000
								}
							}
						}
					}
				}
				JOINT RightShoulder
				{
					OFFSET -5.731700 15.108002 -2.763700
					CHANNELS 3 Xrotation Yrotation Zrotation
					JOINT RightArm
					{
						OFFSET -9.825497 2.506317 -1.597400
						CHANNELS 3 Xrotation Yrotation Zrotation
						JOINT RightForeArm
						{
							OFFSET -21.966242 0.000000 0.000000
							CHANNELS 3 Xrotation Yrotation Zrotation
							JOINT RightHand
							{
								OFFSET -33.879032 0.000000 0.000000
								CHANNELS 3 Xrotation Yrotation Zrotation
								JOINT RightHandThumb1
								{
									OFFSET -6.715286 -2.359680 3.363841
									CHANNELS 3 Xrotation Yrotation Zrotation
									JOINT RightHandThumb2
									{
										OFFSET -2.507072 -1.447464 1.447461
										CHANNELS 3 Xrotation Yrotation Zrotation
										JOINT RightHandThumb3
										{
											OFFSET -2.898338 -1.673355 1.673357
											CHANNELS 3 Xrotation Yrotation Zrotation
											End Site
											{
												OFFSET 0.295959 3.727692 -0.131651
											}
										}
									}
								}
								JOINT RightHandIndex1
								{
									OFFSET -14.190811 -0.254547 3.840278
									CHANNELS 3 Xrotation Yrotation Zrotation
									JOINT RightHandIndex2
									{
										OFFSET -3.551727 0.000000 -0.000000
										CHANNELS 3 Xrotation Yrotation Zrotation
										JOINT RightHandIndex3
										{
											OFFSET -2.894196 0.000000 0.000000
											CHANNELS 3 Xrotation Yrotation Zrotation
											End Site
											{
												OFFSET 1.000603 2.690872 0.366626
											}
										}
									}
								}
								JOINT RightHandMiddle1
								{
									OFFSET -13.776489 0.000000 0.000000
									CHANNELS 3 Xrotation Yrotation Zrotation
									JOINT RightHandMiddle2
									{
										OFFSET -3.438232 0.000000 0.000000
										CHANNELS 3 Xrotation Yrotation Zrotation
										JOINT RightHandMiddle3
										{
											OFFSET -3.691551 0.000000 0.000000
											CHANNELS 3 Xrotation Yrotation Zrotation
											End Site
											{
												OFFSET 1.082298 3.499527 0.457670
											}
										}
									}
								}
								JOINT RightHandRing1
								{
									OFFSET -13.966164 -0.268127 -3.067488
									CHANNELS 3 Xrotation Yrotation Zrotation
									JOINT RightHandRing2
									{
										OFFSET -3.162567 0.000000 0.000000
										CHANNELS 3 Xrotation Yrotation Zrotation
										JOINT RightHandRing3
										{
											OFFSET -3.324348 0.000000 0.000000
											CHANNELS 3 Xrotation Yrotation Zrotation
											End Site
											{
												OFFSET 0.861900 3.184998 0.405154
											}
										}
									}
								}
								JOINT RightHandPinky1
								{
									OFFSET -13.131393 -0.168503 -5.746925
									CHANNELS 3 Xrotation Yrotation Zrotation
									JOINT RightHandPinky2
									{
										OFFSET -2.849182 0.000000 0.000000
										CHANNELS 3 Xrotation Yrotation Zrotation
										JOINT RightHandPinky3
										{
											OFFSET -2.805038 0.000000 0.000000
											CHANNELS 3 Xrotation Yrotation Zrotation
											End Site
											{
												OFFSET 0.882500 2.642609 0.325652
											}
										}
									}
								}
							}
							JOINT Right_Sleeve
							{
								OFFSET -6.592125 -0.646545 0.805568
								CHANNELS 3 Xrotation Yrotation Zrotation
								End Site
								{
									OFFSET 0.000179 20.275787 -0.000000
								}
							}
						}
					}
				}
				JOINT Bind_Right_JacketString
				{
					OFFSET -3.534800 11.969597 7.200700
					CHANNELS 3 Xrotation Yrotation Zrotation
					JOINT Bind_Right_JacketString1
					{
						OFFSET -0.319900 -6.102600 2.794100
						CHANNELS 3 Xrotation Yrotation Zrotation
						End Site
						{
							OFFSET 0.000000 6.719452 0.000000
						}
					}
				}
				JOINT Bind_Left_JacketString
				{
					OFFSET 2.904800 11.969597 7.200700
					CHANNELS 3 Xrotation Yrotation Zrotation
					JOINT Bind_Left_JacketString1
					{
						OFFSET 0.364800 -5.904503 3.186800
						CHANNELS 3 Xrotation Yrotation Zrotation
						End Site
						{
							OFFSET 0.000000 6.719513 0.000000
						}
					}
				}
				JOINT HairE
				{
					OFFSET 5.915200 17.612701 -11.592200
					CHANNELS 3 Xrotation Yrotation Zrotation
					JOINT HairE1
					{
						OFFSET 0.289200 -7.171898 -1.284500
						CHANNELS 3 Xrotation Yrotation Zrotation
						End Site
						{
							OFFSET 0.000000 7.291756 0.000000
						}
					}
				}
				JOINT HairF
				{
					OFFSET -0.864800 17.612701 -11.592200
					CHANNELS 3 Xrotation Yrotation Zrotation
					JOINT HairF1
					{
						OFFSET 0.000000 -14.087097 -2.127501
						CHANNELS 3 Xrotation Yrotation Zrotation
						End Site
						{
							OFFSET 0.000000 14.246841 0.000000
						}
					}
				}
				JOINT HairG
				{
					OFFSET -8.087700 17.612701 -11.592200
					CHANNELS 3 Xrotation Yrotation Zrotation
					JOINT HairG1
					{
						OFFSET -0.293600 -6.081398 -0.910100
						CHANNELS 3 Xrotation Yrotation Zrotation
						End Site
						{
							OFFSET 0.000000 6.156120 0.000000
						}
					}
				}
			}
		}
	}
	JOINT Pouch
	{
		OFFSET 0.000000 4.394501 10.847300
		CHANNELS 3 Xrotation Yrotation Zrotation
		End Site
		{
			OFFSET 0.000000 21.880577 0.000000
		}
	}
	JOINT Bag
	{
		OFFSET -13.229000 4.813004 -0.593300
		CHANNELS 3 Xrotation Yrotation Zrotation
		End Site
		{
			OFFSET 0.000000 21.880577 0.000000
		}
	}
	JOINT OccupyGuyFacialAnim_Joint
	{
		OFFSET 1.000000 -70.206398 -1.655000
		CHANNELS 3 Xrotation Yrotation Zrotation
		End Site
		{
			OFFSET 0.000000 21.880577 0.000000
		}
	}
}
MOTION
Frames: 4
Frame Time: 0.033333
-0.184395 70.913315 1.292230 -3.753516 -5.225718 -3.476178 0.000000 0.000000 -0.000000 -8.979823 15.119833 9.858763 13.251751 1.945126 4.204798 -1.497282 0.723177 -7.482289 -0.000000 0.000000 -0.000000 0.000001 -0.000001 -0.000000 3.971503 -10.248333 4.211337 5.923874 -9.781445 -3.294850 -5.611887 -1.683208 3.150709 0.000000 -0.000000 0.000000 -0.000000 -0.000000 -0.000000 3.301365 1.528898 2.444371 1.146035 0.341202 1.552971 1.123712 0.360946 1.550934 5.622645 -0.077172 0.473649 -7.551133 1.374727 -0.084353 0.000000 -0.000000 0.000000 0.000000 -0.000000 0.000000 0.000000 -0.000000 0.000000 0.000000 -0.000000 -0.000000 0.000000 -0.000000 -0.000000 0.000000 -0.000000 -0.000000 0.000000 -0.000000 -0.000000 0.000000 -0.000000 0.000000 0.000000 -0.000000 0.000000 1.045711 -17.446028 -12.318209 3.915819 -19.989401 -69.767596 0.000002 -1.453272 -0.000022 -33.228290 -1.359644 -6.191147 -0.666101 2.158567 4.837386 11.859655 25.414847 17.056686 0.000001 -0.000001 -0.000002 0.020570 -0.966565 -7.590904 0.267899 1.752964 -17.376527 0.000001 -0.000000 -0.000002 -0.077456 2.661824 -15.698693 0.268776 1.755772 -17.405253 -0.000000 -0.000000 0.000002 0.137972 3.644569 -21.134811 0.386570 2.094654 -20.910482 -0.000002 0.000000 0.000002 0.923046 5.558217 -27.126849 0.268792 1.755840 -17.405883 -0.000001 -0.000001 0.000004 0.000000 -0.000000 -0.000000 1.190402 15.344054 14.703770 13.162763 27.550900 58.780963 0.000009 6.689786 -0.000012 -20.174753 -0.523576 6.792890 -1.664526 -0.169102 -4.216946 12.708034 -29.838177 -16.127697 0.000000 -0.000001 0.000000 0.037635 1.264471 6.828346 0.213866 -1.396479 17.412932 0.000004 -0.000001 0.000000 -0.135895 -2.206387 14.998762 0.214475 -1.398408 17.437710 -0.000000 0.000001 0.000001 0.031305 -3.078190 20.463750 0.308439 -1.668280 20.948530 0.000001 -0.000002 0.000002 0.737512 -4.891329 26.471312 0.214426 -1.398282 17.436023 -0.000001 -0.000000 -0.000001 -0.000001 0.000000 -0.000000 0.000000 0.000000 0.000000 0.000000 -0.000000 -0.000000 0.000000 0.000000 0.000000 0.000000 0.000000 0.000000 0.000000 0.000000 0.000000 0.000000 -0.000000 0.000000 0.000000 0.000000 0.000000 0.000000 0.000000 0.000000 0.000000 0.000000 0.000000 0.000000 -0.000000 0.000000 0.000000 0.000000 -0.000000 0.000000 0.000000 -0.000000 0.000000 0.000000 -0.000000 
0.116483 70.906998 1.168796 -3.865085 -4.879022 -3.196950 0.000000 0.000000 0.000000 -8.788863 15.247455 9.226356 12.991222 1.602704 4.206148 -1.292722 0.699881 -7.106466 -0.000000 0.000001 0.000000 0.000000 0.000001 -0.000000 3.311153 -10.233188 3.572603 7.035789 -9.992399 -3.294284 -5.943783 -1.918315 3.475486 -0.000000 -0.000000 0.000000 0.000000 0.000001 -0.000000 3.557687 1.584173 2.368716 1.204030 0.341204 1.514848 1.182190 0.360945 1.513554 5.317613 -0.118090 0.473649 -7.188313 0.873283 0.115924 -0.000000 0.000000 0.000000 -0.000000 0.000000 0.000000 -0.000000 0.000000 -0.000000 -0.000000 0.000000 0.000000 -0.000000 -0.000000 0.000000 -0.000000 0.000000 0.000000 -0.000000 -0.000000 0.000000 -0.000000 0.000000 0.000000 -0.000000 0.000000 0.000000 1.046962 -16.996823 -12.283703 3.290597 -20.727391 -69.362921 0.000001 -1.474953 -0.000007 -33.877561 -2.200742 -6.314271 -0.950550 2.415794 4.646636 11.953430 25.080940 16.792756 0.000001 -0.000000 -0.000002 -0.012038 -0.744056 -8.481937 0.288158 1.816435 -18.027253 0.000001 0.000001 -0.000000 -0.064015 2.736343 -16.018901 0.292671 1.830228 -18.169014 0.000001 -0.000000 0.000001 0.154132 3.696915 -21.390636 0.397855 2.123946 -21.217119 -0.000001 0.000000 -0.000003 0.920294 5.550925 -27.220355 0.276837 1.781282 -17.666487 -0.000001 0.000000 0.000003 0.000007 0.000000 -0.000001 1.174548 15.087820 14.687360 11.904355 27.525130 58.594212 -0.000011 5.943745 0.000013 -19.611001 0.596398 6.617790 -1.600037 -0.498835 -3.570370 12.733927 -29.539240 -15.784349 0.000002 -0.000001 0.000003 -0.034332 0.979616 7.733139 0.226459 -1.436045 17.922845 0.000000 0.000002 0.000002 -0.106425 -2.333799 15.205948 0.208374 -1.378875 17.186421 0.000001 0.000000 0.000001 0.041015 -3.101069 20.389993 0.275302 -1.579034 19.779041 -0.000002 -0.000002 -0.000000 0.708533 -4.842952 26.005136 0.194084 -1.331809 16.582226 -0.000000 0.000001 -0.000001 0.000002 -0.000000 -0.000001 -0.000000 -0.000000 -0.000000 0.000000 0.000000 -0.000000 -0.000000 -0.000000 0.000000 -0.000000 -0.000000 0.000000 -0.000000 -0.000000 -0.000000 0.000000 0.000000 -0.000000 -0.000000 -0.000000 0.000000 -0.000000 -0.000000 0.000000 -0.000000 -0.000000 -0.000000 0.000000 0.000000 -0.000000 0.000000 0.000000 0.000000 0.000000 0.000000 0.000000 0.000000 0.000000 0.000000 
0.395042 70.903030 1.018387 -4.003418 -4.464400 -2.941153 0.000000 -0.000000 -0.000000 -8.439249 15.397155 8.601117 12.420208 1.195500 4.200733 -0.993015 0.660224 -6.721370 0.000000 -0.000000 -0.000000 0.000001 -0.000000 -0.000000 2.802204 -10.203307 3.005405 7.909139 -9.980251 -3.295132 -6.141178 -2.427096 3.738536 -0.000000 0.000000 -0.000000 0.000000 0.000000 -0.000000 3.873926 1.620706 2.292060 1.267999 0.345099 1.478191 1.246535 0.363694 1.475844 4.990983 -0.155806 0.458524 -7.053714 0.385062 0.244082 -0.000000 -0.000000 -0.000000 -0.000000 -0.000000 -0.000000 -0.000000 -0.000000 -0.000000 -0.000000 -0.000000 -0.000000 -0.000000 0.000000 -0.000000 -0.000000 -0.000000 -0.000000 -0.000000 0.000000 -0.000000 -0.000000 -0.000000 -0.000000 -0.000000 -0.000000 -0.000000 1.051403 -16.569988 -12.233048 2.638288 -21.541370 -68.986912 0.000005 -1.516125 0.000005 -34.312108 -3.033377 -6.546178 -1.234532 2.674249 4.457822 12.046720 24.745955 16.530395 -0.000001 -0.000001 -0.000001 -0.043275 -0.512307 -9.456586 0.313753 1.893230 -18.818018 0.000004 0.000001 0.000002 -0.049539 2.815655 -16.386259 0.322220 1.917863 -19.072410 0.000001 0.000000 0.000001 0.171324 3.751877 -21.673589 0.413568 2.163951 -21.637138 -0.000002 0.000001 0.000001 0.918783 5.545653 -27.336606 0.287823 1.815389 -18.016465 -0.000003 -0.000001 0.000003 0.000002 0.000000 -0.000001 1.159048 14.818893 14.669269 10.529879 27.497408 58.525726 -0.000011 5.157082 0.000027 -19.008314 1.721113 6.413559 -1.501125 -0.833837 -2.869946 12.759733 -29.239657 -15.441483 -0.000001 -0.000001 0.000000 -0.102065 0.694627 8.614220 0.237225 -1.468896 18.347538 -0.000003 0.000001 0.000001 -0.076279 -2.454542 15.333421 0.197896 -1.344508 16.744960 0.000001 -0.000001 0.000003 0.048270 -3.110381 20.145844 0.237181 -1.468764 18.345777 0.000000 0.000001 -0.000003 0.672784 -4.782591 25.372589 0.169340 -1.245699 15.481703 -0.000000 0.000001 -0.000003 0.000003 0.000001 0.000001 0.000000 -0.000000 0.000000 0.000000 -0.000000 0.000000 0.000000 -0.000000 0.000000 0.000000 -0.000000 0.000000 0.000000 -0.000000 0.000000 0.000000 -0.000000 0.000000 0.000000 -0.000000 0.000000 0.000000 -0.000000 0.000000 0.000000 -0.000000 0.000000 0.000000 -0.000000 0.000000 0.000000 -0.000000 -0.000000 0.000000 -0.000000 -0.000000 0.000000 -0.000000 -0.000000 
0.668452 70.896759 0.861742 -4.149689 -4.032948 -2.696553 -0.000000 0.000000 0.000000 -8.204853 15.512678 8.061582 12.059665 0.774011 4.161992 -0.728535 0.620238 -6.486966 0.000000 0.000000 -0.000000 -0.000000 0.000000 -0.000000 2.351013 -10.161605 2.465174 8.700633 -9.973289 -3.296041 -6.299439 -2.944135 3.993240 -0.000000 0.000000 0.000000 -0.000000 -0.000001 -0.000000 4.571928 1.528942 2.366234 1.359063 0.303765 1.489907 1.337014 0.320292 1.492598 4.596042 -0.183883 0.424980 -7.309780 -0.070244 0.221875 0.000000 -0.000000 0.000000 0.000000 -0.000000 0.000000 0.000000 -0.000000 0.000000 0.000000 -0.000000 -0.000000 -0.000000 -0.000000 -0.000000 0.000000 -0.000000 -0.000000 -0.000000 -0.000000 -0.000000 0.000000 -0.000000 0.000000 0.000000 -0.000000 0.000000 1.054998 -16.143070 -12.181327 1.941506 -22.367054 -68.664786 -0.000009 -1.497121 0.000003 -34.660369 -3.879098 -6.787841 -1.518083 2.933918 4.270918 12.139545 24.409868 16.269557 0.000001 0.000001 0.000001 -0.061739 -0.275121 -10.496112 0.344164 1.980168 -19.717730 0.000002 -0.000001 -0.000000 -0.033948 2.898613 -16.790335 0.356949 2.015465 -20.084455 -0.000000 0.000000 0.000001 0.189444 3.808828 -21.977667 0.432974 2.212193 -22.145232 0.000001 0.000001 -0.000001 0.918217 5.541947 -27.470567 0.301262 1.856187 -18.436030 0.000001 0.000000 0.000001 -0.000005 0.000000 0.000000 1.143461 14.556253 14.649851 9.141226 27.501676 58.501793 -0.000001 4.390710 -0.000014 -18.404780 2.837936 6.187546 -1.374076 -1.173446 -2.127592 12.785442 -28.939430 -15.099110 -0.000001 0.000000 0.000001 -0.163606 0.408861 9.485540 0.247348 -1.499037 18.738110 -0.000003 0.000002 0.000001 -0.045719 -2.572581 15.429015 0.185920 -1.304106 16.227513 0.000003 -0.000000 0.000004 0.054416 -3.114343 19.833502 0.199353 -1.349344 16.807081 0.000003 -0.000000 -0.000001 0.635056 -4.717020 24.673561 0.144255 -1.151336 14.282543 -0.000001 -0.000001 -0.000001 0.000004 0.000000 -0.000000 -0.000000 0.000000 -0.000000 0.000000 -0.000000 0.000000 -0.000000 0.000000 -0.000000 -0.000000 0.000000 -0.000000 -0.000000 0.000000 -0.000000 0.000000 -0.000000 0.000000 -0.000000 0.000000 -0.000000 -0.000000 0.000000 -0.000000 -0.000000 0.000000 -0.000000 0.000000 -0.000000 0.000000 -0.000000 0.000000 0.000000 -0.000000 0.000000 0.000000 -0.000000 0.000000 0.000000 
